<svg xmlns="http://www.w3.org/2000/svg" viewBox="0 0 512 512"><path d="M363.639 262.267a10.001 10.001 0 00-6.163-6.581c-.608-.222-5.537-1.966-13.193-3.086 32.708-34.803 21.909-75.464 19.356-83.405a10 10 0 00-6.163-6.582c-1.404-.514-25.885-9.146-53.777.561 1.575-6.461 2.496-13.564 2.496-21.358 0-49.867-37.763-71.785-45.341-75.676a9.995 9.995 0 00-9.012-.296c-1.875.871-45.929 21.954-45.929 75.972 0 7.81.925 14.928 2.506 21.399-27.941-9.772-52.488-1.117-53.894-.602a10 10 0 00-6.163 6.582c-2.553 7.941-13.352 48.602 19.356 83.405-7.656 1.12-12.585 2.864-13.193 3.086a10.004 10.004 0 00-6.164 6.582c-2.606 8.107-13.812 50.311 21.45 85.573 20.406 20.406 43.054 25.274 60.022 25.274 6.282 0 11.773-.669 16.096-1.463v65.433c0 5.522 4.477 10 10 10s10-4.478 10-10v-65.458a89.58 89.58 0 0016.238 1.487c16.967 0 39.618-4.87 60.022-25.274 35.262-35.263 24.056-77.466 21.45-85.573zm-117.71 78.212a66.666 66.666 0 01-1.468 11.097c-10.689 2.375-37.433 5.197-60.507-17.878-22.727-22.725-20.345-49.026-17.829-60.502 6.721-1.461 19.836-3.089 34.356 1.623.956.358 1.909.696 2.857 1.011 7.69 2.916 15.674 7.676 23.241 15.242 14.419 14.419 18.725 30.269 19.35 42.735v6.672zm0-93.071a66.636 66.636 0 01-1.468 11.096c-6.623 1.473-19.409 3.108-33.666-1.342a80.593 80.593 0 00-4.309-1.523c-7.458-2.946-15.181-7.662-22.533-15.013-22.726-22.726-20.344-49.026-17.828-60.501 10.679-2.322 37.498-5.08 60.454 17.876.146.146.278.293.421.438a88.998 88.998 0 002.636 2.829c11.969 13.511 15.715 27.937 16.293 39.468v6.672zm10.141-50.174c-3.134-2.01-7.65-5.323-12.237-10.112a100.76 100.76 0 00-1.427-1.537c-8.355-9.281-16.494-23.518-16.494-43.769 0-32.597 20.86-49.51 30.091-55.398 9.886 6.326 30.191 23.239 30.191 55.398 0 19.11-7.171 32.822-14.963 42.09a95.862 95.862 0 00-4.565 4.906c-3.998 3.887-7.827 6.658-10.596 8.422zm9.921 46.933c-.014-11.74 3.023-27.276 15.457-41.866a87.382 87.382 0 004.422-4.732c22.947-22.571 49.379-19.814 60.001-17.464 2.517 11.465 4.915 37.782-17.825 60.521-7.338 7.339-15.046 12.051-22.491 14.999a80.99 80.99 0 00-4.382 1.548c-14.255 4.443-27.033 2.802-33.63 1.334-.74-3.333-1.524-8.228-1.553-14.085l.001-.255zm62.055 89.531c-23.078 23.079-49.823 20.252-60.487 17.886-2.325-10.638-5.136-37.514 17.862-60.512 7.358-7.358 15.087-12.075 22.551-15.021a79.852 79.852 0 004.298-1.518c14.226-4.44 26.983-2.82 33.601-1.357 2.517 11.466 4.915 37.783-17.825 60.522z"/><path d="M309.356 5.571C291.925 1.875 273.973 0 256 0 187.62 0 123.333 26.628 74.981 74.981 26.629 123.333 0 187.62 0 256c0 56.978 19.17 112.597 54.096 157.381-3.929 6.078-6.044 13.158-6.044 20.568 0 10.15 3.953 19.692 11.13 26.87 7.177 7.177 16.72 11.13 26.87 11.13s19.693-3.953 26.87-11.13c7.178-7.178 11.13-16.72 11.13-26.87 0-10.15-3.953-19.692-11.13-26.87s-16.72-11.131-26.87-11.131a37.825 37.825 0 00-17.038 4.025C37.362 358.885 20 308.061 20 256 20 125.869 125.869 20 256 20c16.582 0 33.137 1.728 49.207 5.136 5.406 1.145 10.711-2.306 11.857-7.708 1.146-5.403-2.305-10.711-7.708-11.857zM73.324 421.22c3.509-3.51 8.118-5.264 12.728-5.264s9.219 1.755 12.728 5.264c3.4 3.399 5.272 7.92 5.272 12.728s-1.872 9.328-5.272 12.728c-7.018 7.02-18.438 7.018-25.456 0-3.4-3.399-5.272-7.92-5.272-12.728s1.872-9.328 5.272-12.728zm384.58-322.601c3.929-6.078 6.044-13.158 6.044-20.568 0-10.15-3.953-19.693-11.13-26.87-7.177-7.178-16.72-11.13-26.87-11.13-10.15 0-19.693 3.953-26.87 11.13s-11.13 16.72-11.13 26.87c0 10.15 3.953 19.693 11.13 26.87 7.177 7.178 16.72 11.13 26.87 11.13a37.83 37.83 0 0017.039-4.025C474.638 153.115 492 203.939 492 256c0 130.131-105.869 236-236 236a238.245 238.245 0 01-41.688-3.669c-5.434-.967-10.631 2.652-11.599 8.091-.969 5.437 2.653 10.63 8.09 11.599A258.392 258.392 0 00256 512c68.38 0 132.667-26.629 181.02-74.98S512 324.38 512 256c0-56.978-19.17-112.597-54.096-157.381zm-19.227-7.84c-3.399 3.4-7.92 5.272-12.728 5.272s-9.329-1.871-12.728-5.272c-7.019-7.018-7.019-18.437 0-25.456 3.399-3.4 7.92-5.272 12.728-5.272s9.328 1.872 12.728 5.272a17.88 17.88 0 015.272 12.728c0 4.808-1.872 9.328-5.272 12.728zM168.134 475.102l-3.776 9.26 3.748-9.271c-5.123-2.068-10.949.403-13.019 5.523-2.07 5.12.403 10.949 5.523 13.02l.309.122c1.179.451 2.393.665 3.587.665 4.028 0 7.835-2.438 9.359-6.415 1.976-5.159-.573-10.929-5.731-12.904zm183.69-456.559l-.178-.071c-5.127-2.052-10.947.443-12.999 5.571-2.052 5.128.443 10.946 5.571 12.998l.114.046a9.97 9.97 0 003.743.73c3.956 0 7.702-2.363 9.275-6.256 2.069-5.121-.405-10.949-5.526-13.018z"/></svg>