<svg xmlns="http://www.w3.org/2000/svg" width="55" height="54" viewBox="0 0 55 54">
  <metadata><?xpacket begin="﻿" id="W5M0MpCehiHzreSzNTczkc9d"?>
<x:xmpmeta xmlns:x="adobe:ns:meta/" x:xmptk="Adobe XMP Core 5.6-c138 79.159824, 2016/09/14-01:09:01        ">
   <rdf:RDF xmlns:rdf="http://www.w3.org/1999/02/22-rdf-syntax-ns#">
      <rdf:Description rdf:about=""/>
   </rdf:RDF>
</x:xmpmeta>
                                                                                                    
                                                                                                    
                                                                                                    
                                                                                                    
                                                                                                    
                                                                                                    
                                                                                                    
                                                                                                    
                                                                                                    
                                                                                                    
                                                                                                    
                                                                                                    
                                                                                                    
                                                                                                    
                                                                                                    
                                                                                                    
                                                                                                    
                                                                                                    
                                                                                                    
                                                                                                    
                           
<?xpacket end="w"?></metadata>
<defs>
    <style>
      .cls-1 {
        fill-rule: evenodd;
      }
    </style>
  </defs>
  <path id="иконка_доставка" data-name="иконка доставка" class="cls-1" d="M52.066,12.144H44.436a7.458,7.458,0,0,0,2.008-5.092s0-.3,0-0.385A6.847,6.847,0,0,0,42.88.887a7.106,7.106,0,0,0-6.979,0l-3.47,1.944A12.052,12.052,0,0,0,27.5,8.042a12.053,12.053,0,0,0-4.931-5.209L19.1,0.888a7.108,7.108,0,0,0-6.979,0,6.849,6.849,0,0,0-3.56,5.78c0,0.085,0,.385,0,0.385a7.459,7.459,0,0,0,2.008,5.092H2.934A2.927,2.927,0,0,0,0,15.057V21.97a2.927,2.927,0,0,0,2.934,2.913H4.278v26.2A2.927,2.927,0,0,0,7.212,54H47.788a2.927,2.927,0,0,0,2.934-2.913v-26.2h1.343A2.927,2.927,0,0,0,55,21.97V15.057A2.927,2.927,0,0,0,52.066,12.144Zm-18.433-7.2L37.1,3a4.664,4.664,0,0,1,4.581,0A4.441,4.441,0,0,1,44,6.749c0,0.058,0,.3,0,0.3a5.117,5.117,0,0,1-5.13,5.092H28.792A9.6,9.6,0,0,1,33.633,4.945ZM11,6.749A4.441,4.441,0,0,1,13.316,3,4.664,4.664,0,0,1,17.9,3l3.47,1.944a9.6,9.6,0,0,1,4.841,7.2H16.13A5.117,5.117,0,0,1,11,7.052S11,6.807,11,6.749ZM22,28.574H16.968a1.213,1.213,0,1,0,0,2.426H22V51.573H7.212a0.488,0.488,0,0,1-.49-0.486v-26.2H22v3.691h0Zm0-6.118H2.934a0.488,0.488,0,0,1-.49-0.486V15.057a0.489,0.489,0,0,1,.49-0.487H22v7.886Zm8.555,29.117H24.445v-37h6.111v37Zm17.722-.486a0.488,0.488,0,0,1-.49.486H33V31h4.657a1.214,1.214,0,1,0,0-2.427H33V24.883H48.278v26.2h0ZM52.556,21.97a0.488,0.488,0,0,1-.49.486H33V14.571H52.066a0.489,0.489,0,0,1,.49.487V21.97h0ZM43.463,31h0.122a1.214,1.214,0,1,0,0-2.427H43.463A1.214,1.214,0,1,0,43.463,31ZM11.041,31h0.122a1.214,1.214,0,1,0,0-2.427H11.041A1.214,1.214,0,1,0,11.041,31Z"/>
</svg>
