<svg xmlns="http://www.w3.org/2000/svg" xmlns:xlink="http://www.w3.org/1999/xlink" width="55" height="54.031" viewBox="0 0 55 54.031">
  <metadata><?xpacket begin="﻿" id="W5M0MpCehiHzreSzNTczkc9d"?>
<x:xmpmeta xmlns:x="adobe:ns:meta/" x:xmptk="Adobe XMP Core 5.6-c138 79.159824, 2016/09/14-01:09:01        ">
   <rdf:RDF xmlns:rdf="http://www.w3.org/1999/02/22-rdf-syntax-ns#">
      <rdf:Description rdf:about=""/>
   </rdf:RDF>
</x:xmpmeta>
                                                                                                    
                                                                                                    
                                                                                                    
                                                                                                    
                                                                                                    
                                                                                                    
                                                                                                    
                                                                                                    
                                                                                                    
                                                                                                    
                                                                                                    
                                                                                                    
                                                                                                    
                                                                                                    
                                                                                                    
                                                                                                    
                                                                                                    
                                                                                                    
                                                                                                    
                                                                                                    
                           
<?xpacket end="w"?></metadata>
<defs>
    <style>
      .cls-1 {
        fill-rule: evenodd;
        filter: url(#filter);
      }
    </style>
    <filter id="filter" x="345" y="750.969" width="55" height="54.031" filterUnits="userSpaceOnUse">
      <feFlood result="flood" flood-color="#f50049"/>
      <feComposite result="composite" operator="in" in2="SourceGraphic"/>
      <feBlend result="blend" in2="SourceGraphic"/>
    </filter>
  </defs>
  <path id="иконка_доставка" data-name="иконка доставка" class="cls-1" d="M397.066,763.144h-7.63a7.457,7.457,0,0,0,2.008-5.092s0-.3,0-0.385a6.847,6.847,0,0,0-3.56-5.78,7.109,7.109,0,0,0-6.979,0l-3.469,1.945a12.053,12.053,0,0,0-4.932,5.209,12.053,12.053,0,0,0-4.932-5.209l-3.469-1.945a7.109,7.109,0,0,0-6.979,0,6.847,6.847,0,0,0-3.56,5.78c0,0.085,0,.385,0,0.385a7.459,7.459,0,0,0,2.008,5.092h-7.63A2.927,2.927,0,0,0,345,766.057v6.913a2.927,2.927,0,0,0,2.934,2.913h1.344v26.2A2.927,2.927,0,0,0,352.212,805h40.576a2.927,2.927,0,0,0,2.934-2.913v-26.2h1.344A2.927,2.927,0,0,0,400,772.97v-6.913A2.927,2.927,0,0,0,397.066,763.144Zm-18.433-7.2L382.1,754a4.662,4.662,0,0,1,4.58,0A4.44,4.44,0,0,1,389,757.749c0,0.058,0,.3,0,0.3a5.117,5.117,0,0,1-5.13,5.092H373.792A9.6,9.6,0,0,1,378.633,755.945Zm-22.63,1.8A4.442,4.442,0,0,1,358.316,754a4.665,4.665,0,0,1,4.581,0l3.47,1.944a9.605,9.605,0,0,1,4.841,7.2H361.13a5.117,5.117,0,0,1-5.13-5.092S356,757.807,356,757.749Zm11,21.825h-5.032a1.213,1.213,0,1,0,0,2.426H367v20.573H352.212a0.488,0.488,0,0,1-.49-0.486v-26.2H367v3.691h0Zm0-6.118H347.934a0.489,0.489,0,0,1-.49-0.486v-6.913a0.49,0.49,0,0,1,.49-0.487H367v7.886Zm8.555,29.117h-6.11v-37h6.11v37Zm17.723-.486a0.488,0.488,0,0,1-.49.486H378V782h4.657a1.214,1.214,0,1,0,0-2.427H378v-3.69h15.278v26.2h0Zm4.278-29.117a0.489,0.489,0,0,1-.49.486H378V765.57h19.066a0.49,0.49,0,0,1,.49.487v6.913h0ZM388.463,782h0.122a1.214,1.214,0,1,0,0-2.427h-0.122A1.214,1.214,0,1,0,388.463,782Zm-32.422,0h0.122a1.214,1.214,0,1,0,0-2.427h-0.122A1.214,1.214,0,1,0,356.041,782Z" transform="translate(-345 -750.969)"/>
</svg>
