<svg xmlns="http://www.w3.org/2000/svg" viewBox="0 0 512 512"><path d="M460.8 128h-90.189c7.612-2.799 14.182-5.726 19.089-8.567 30.609-17.673 41.097-56.815 23.424-87.424C401.271 11.477 379.759 0 357.641 0c-10.854 0-21.862 2.765-31.94 8.585-19.115 11.042-52.002 42.931-69.7 72.789-17.698-29.85-50.586-61.747-69.7-72.789C176.222 2.765 165.222 0 154.359 0c-22.118 0-43.631 11.477-55.484 32.009-17.673 30.609-7.185 69.751 23.424 87.424 4.907 2.833 11.477 5.76 19.089 8.567H51.2c-14.14 0-25.6 11.46-25.6 25.6v76.8c0 14.14 11.46 25.6 25.6 25.6v230.4c0 14.14 11.46 25.6 25.6 25.6h358.4c14.14 0 25.6-11.46 25.6-25.6V256c14.14 0 25.6-11.46 25.6-25.6v-76.8c0-14.14-11.46-25.6-25.6-25.6zM338.5 30.754c5.845-3.371 12.459-5.154 19.14-5.154 13.713 0 26.479 7.364 33.314 19.209 10.59 18.338 4.284 41.865-14.054 52.454-14.515 8.38-55.535 20.557-86.775 20.557-11.699 0-18.099-1.766-20.719-2.961.307-17.434 41.728-68.301 69.094-84.105zM179.2 486.4H76.8V256h102.4v230.4zm0-256h-128v-76.8h128v76.8zM135.1 97.263c-18.338-10.59-24.644-34.116-14.054-52.454 6.835-11.844 19.61-19.209 33.323-19.209 6.682 0 13.295 1.784 19.132 5.154 27.366 15.804 68.787 66.671 69.086 84.104-2.62 1.195-9.02 2.961-20.719 2.961-31.233.001-72.253-12.176-86.768-20.556zM307.2 486.4H204.8V153.6h102.4v332.8zm128 0H332.8V256h102.4v230.4zm25.6-256h-128v-76.8h128v76.8z"/></svg>